<mxfile host="app.diagrams.net" modified="2023-08-08T05:43:11.034Z" agent="Mozilla/5.0 (Windows NT 10.0; Win64; x64) AppleWebKit/537.36 (KHTML, like Gecko) Chrome/115.0.0.0 Safari/537.36" version="21.6.6" etag="lSx0dUp_8Zc9ClXcYVfO" type="github">
  <diagram name="Halaman-1" id="pqAGjOMbBmIw2S3oyRXt">
    <mxGraphModel>
      <root>
        <mxCell id="0" />
        <mxCell id="1" parent="0" />
      </root>
    </mxGraphModel>
  </diagram>
</mxfile>
